<svg viewBox="0 0 512 512" xmlns="http://www.w3.org/2000/svg" fill-rule="evenodd" clip-rule="evenodd" stroke-linejoin="round" stroke-miterlimit="2"><g transform="translate(9.167 9.167) scale(11.5703)"><clipPath id="prefix__a"><path d="M0 0h42.667v42.667H0z"/></clipPath><g clip-path="url(#prefix__a)"><path d="M23.99 24.43h-5.317l-.44-.44v-5.317l.44-.44h5.316l.442.44v5.316l-.442.442z" fill="#014847" fill-rule="nonzero"/><g fill="#05bdba" fill-rule="nonzero"><path d="M12.928 32.441h-.452l-2.255-2.254v-.448l3.447-3.451 2.388.004.319.315v2.388l-3.447 3.446zM10.221 12.928v-.452l2.255-2.255h.452l3.447 3.447v2.384l-.319.323h-2.388l-3.447-3.447zM13.395 23.25H.273L0 22.974v-3.287l.273-.275h13.122l.273.275v3.287l-.273.274zM42.393 23.25H29.272l-.273-.275v-3.287l.273-.275h13.121l.274.275v3.287l-.274.274zM19.417 13.395V3.553l.275-.273h3.287l.274.273v9.842l-.274.273h-3.287l-.275-.273zM19.417 39.11v-9.84l.275-.275h3.287l.274.274v9.84l-.274.274h-3.287l-.275-.274z"/></g></g></g></svg>